{
    "asset" : {
        "generator" : "Khronos glTF Blender I/O v3.3.32",
        "version" : "2.0"
    },
    "scene" : 0,
    "scenes" : [
        {
            "name" : "Scene",
            "nodes" : [
                1,
                3,
                5,
                7,
                9,
                11
            ]
        }
    ],
    "nodes" : [
        {
            "mesh" : 0,
            "name" : "floor-colonly"
        },
        {
            "children" : [
                0
            ],
            "mesh" : 1,
            "name" : "floor"
        },
        {
            "mesh" : 2,
            "name" : "floor-border-colonly"
        },
        {
            "children" : [
                2
            ],
            "mesh" : 3,
            "name" : "floor-border",
            "translation" : [
                -4,
                0,
                0
            ]
        },
        {
            "mesh" : 4,
            "name" : "floor-corner-borders-colonly"
        },
        {
            "children" : [
                4
            ],
            "mesh" : 5,
            "name" : "floor-corner-borders",
            "translation" : [
                -8,
                0,
                0
            ]
        },
        {
            "mesh" : 6,
            "name" : "floor-corner-colonly"
        },
        {
            "children" : [
                6
            ],
            "mesh" : 7,
            "name" : "floor-corner",
            "translation" : [
                -12,
                0,
                0
            ]
        },
        {
            "mesh" : 8,
            "name" : "floor-ramp-colonly"
        },
        {
            "children" : [
                8
            ],
            "mesh" : 9,
            "name" : "floor-ramp",
            "translation" : [
                -16,
                0,
                0
            ]
        },
        {
            "mesh" : 10,
            "name" : "target-colonly"
        },
        {
            "children" : [
                10
            ],
            "mesh" : 11,
            "name" : "target",
            "translation" : [
                -20,
                0,
                0
            ]
        }
    ],
    "materials" : [
        {
            "doubleSided" : true,
            "name" : "Material.001",
            "pbrMetallicRoughness" : {
                "baseColorFactor" : [
                    0.8000000715255737,
                    0.006310079712420702,
                    0,
                    1
                ],
                "metallicFactor" : 0,
                "roughnessFactor" : 0.5
            }
        },
        {
            "doubleSided" : true,
            "name" : "Material",
            "pbrMetallicRoughness" : {
                "baseColorFactor" : [
                    0.800000011920929,
                    0.800000011920929,
                    0.800000011920929,
                    1
                ],
                "metallicFactor" : 0,
                "roughnessFactor" : 0.5
            }
        }
    ],
    "meshes" : [
        {
            "name" : "Cube.009",
            "primitives" : [
                {
                    "attributes" : {
                        "POSITION" : 0,
                        "NORMAL" : 1,
                        "TEXCOORD_0" : 2
                    },
                    "indices" : 3,
                    "material" : 0
                }
            ]
        },
        {
            "name" : "Cube.007",
            "primitives" : [
                {
                    "attributes" : {
                        "POSITION" : 4,
                        "NORMAL" : 5,
                        "TEXCOORD_0" : 6
                    },
                    "indices" : 3
                }
            ]
        },
        {
            "name" : "Cube.012",
            "primitives" : [
                {
                    "attributes" : {
                        "POSITION" : 7,
                        "NORMAL" : 8,
                        "TEXCOORD_0" : 9
                    },
                    "indices" : 10
                }
            ]
        },
        {
            "name" : "Cube.010",
            "primitives" : [
                {
                    "attributes" : {
                        "POSITION" : 11,
                        "NORMAL" : 12,
                        "TEXCOORD_0" : 13
                    },
                    "indices" : 10
                }
            ]
        },
        {
            "name" : "Cube.013",
            "primitives" : [
                {
                    "attributes" : {
                        "POSITION" : 14,
                        "NORMAL" : 15,
                        "TEXCOORD_0" : 16
                    },
                    "indices" : 17
                }
            ]
        },
        {
            "name" : "Cube.011",
            "primitives" : [
                {
                    "attributes" : {
                        "POSITION" : 18,
                        "NORMAL" : 19,
                        "TEXCOORD_0" : 20
                    },
                    "indices" : 17
                }
            ]
        },
        {
            "name" : "Cube.016",
            "primitives" : [
                {
                    "attributes" : {
                        "POSITION" : 21,
                        "NORMAL" : 22,
                        "TEXCOORD_0" : 23
                    },
                    "indices" : 24
                }
            ]
        },
        {
            "name" : "Cube.015",
            "primitives" : [
                {
                    "attributes" : {
                        "POSITION" : 25,
                        "NORMAL" : 26,
                        "TEXCOORD_0" : 27
                    },
                    "indices" : 28,
                    "material" : 1
                }
            ]
        },
        {
            "name" : "Cube.001",
            "primitives" : [
                {
                    "attributes" : {
                        "POSITION" : 29,
                        "NORMAL" : 30,
                        "TEXCOORD_0" : 31
                    },
                    "indices" : 32
                }
            ]
        },
        {
            "name" : "Cube.019",
            "primitives" : [
                {
                    "attributes" : {
                        "POSITION" : 33,
                        "NORMAL" : 34,
                        "TEXCOORD_0" : 35
                    },
                    "indices" : 32
                }
            ]
        },
        {
            "name" : "Cube.027",
            "primitives" : [
                {
                    "attributes" : {
                        "POSITION" : 36,
                        "NORMAL" : 37,
                        "TEXCOORD_0" : 38
                    },
                    "indices" : 39
                }
            ]
        },
        {
            "name" : "Cube.021",
            "primitives" : [
                {
                    "attributes" : {
                        "POSITION" : 40,
                        "NORMAL" : 41,
                        "TEXCOORD_0" : 42
                    },
                    "indices" : 39
                }
            ]
        }
    ],
    "accessors" : [
        {
            "bufferView" : 0,
            "componentType" : 5126,
            "count" : 24,
            "max" : [
                2,
                0,
                2
            ],
            "min" : [
                -2,
                -1,
                -2
            ],
            "type" : "VEC3"
        },
        {
            "bufferView" : 1,
            "componentType" : 5126,
            "count" : 24,
            "type" : "VEC3"
        },
        {
            "bufferView" : 2,
            "componentType" : 5126,
            "count" : 24,
            "type" : "VEC2"
        },
        {
            "bufferView" : 3,
            "componentType" : 5123,
            "count" : 36,
            "type" : "SCALAR"
        },
        {
            "bufferView" : 4,
            "componentType" : 5126,
            "count" : 24,
            "max" : [
                2,
                0,
                2
            ],
            "min" : [
                -2,
                -1,
                -2
            ],
            "type" : "VEC3"
        },
        {
            "bufferView" : 5,
            "componentType" : 5126,
            "count" : 24,
            "type" : "VEC3"
        },
        {
            "bufferView" : 6,
            "componentType" : 5126,
            "count" : 24,
            "type" : "VEC2"
        },
        {
            "bufferView" : 7,
            "componentType" : 5126,
            "count" : 123,
            "max" : [
                2,
                1,
                2
            ],
            "min" : [
                -2,
                -1,
                -2
            ],
            "type" : "VEC3"
        },
        {
            "bufferView" : 8,
            "componentType" : 5126,
            "count" : 123,
            "type" : "VEC3"
        },
        {
            "bufferView" : 9,
            "componentType" : 5126,
            "count" : 123,
            "type" : "VEC2"
        },
        {
            "bufferView" : 10,
            "componentType" : 5123,
            "count" : 348,
            "type" : "SCALAR"
        },
        {
            "bufferView" : 11,
            "componentType" : 5126,
            "count" : 123,
            "max" : [
                2,
                1,
                2
            ],
            "min" : [
                -2,
                -1,
                -2
            ],
            "type" : "VEC3"
        },
        {
            "bufferView" : 12,
            "componentType" : 5126,
            "count" : 123,
            "type" : "VEC3"
        },
        {
            "bufferView" : 13,
            "componentType" : 5126,
            "count" : 123,
            "type" : "VEC2"
        },
        {
            "bufferView" : 14,
            "componentType" : 5126,
            "count" : 141,
            "max" : [
                2,
                1,
                2
            ],
            "min" : [
                -2,
                -1,
                -2
            ],
            "type" : "VEC3"
        },
        {
            "bufferView" : 15,
            "componentType" : 5126,
            "count" : 141,
            "type" : "VEC3"
        },
        {
            "bufferView" : 16,
            "componentType" : 5126,
            "count" : 141,
            "type" : "VEC2"
        },
        {
            "bufferView" : 17,
            "componentType" : 5123,
            "count" : 384,
            "type" : "SCALAR"
        },
        {
            "bufferView" : 18,
            "componentType" : 5126,
            "count" : 141,
            "max" : [
                2,
                1,
                2
            ],
            "min" : [
                -2,
                -1,
                -2
            ],
            "type" : "VEC3"
        },
        {
            "bufferView" : 19,
            "componentType" : 5126,
            "count" : 141,
            "type" : "VEC3"
        },
        {
            "bufferView" : 20,
            "componentType" : 5126,
            "count" : 141,
            "type" : "VEC2"
        },
        {
            "bufferView" : 21,
            "componentType" : 5126,
            "count" : 105,
            "max" : [
                2,
                1,
                2
            ],
            "min" : [
                -2,
                -1,
                -2
            ],
            "type" : "VEC3"
        },
        {
            "bufferView" : 22,
            "componentType" : 5126,
            "count" : 105,
            "type" : "VEC3"
        },
        {
            "bufferView" : 23,
            "componentType" : 5126,
            "count" : 105,
            "type" : "VEC2"
        },
        {
            "bufferView" : 24,
            "componentType" : 5123,
            "count" : 312,
            "type" : "SCALAR"
        },
        {
            "bufferView" : 25,
            "componentType" : 5126,
            "count" : 109,
            "max" : [
                2,
                1,
                2
            ],
            "min" : [
                -2,
                -1,
                -2
            ],
            "type" : "VEC3"
        },
        {
            "bufferView" : 26,
            "componentType" : 5126,
            "count" : 109,
            "type" : "VEC3"
        },
        {
            "bufferView" : 27,
            "componentType" : 5126,
            "count" : 109,
            "type" : "VEC2"
        },
        {
            "bufferView" : 28,
            "componentType" : 5123,
            "count" : 312,
            "type" : "SCALAR"
        },
        {
            "bufferView" : 29,
            "componentType" : 5126,
            "count" : 50,
            "max" : [
                2,
                4,
                2
            ],
            "min" : [
                -2,
                -1,
                -2
            ],
            "type" : "VEC3"
        },
        {
            "bufferView" : 30,
            "componentType" : 5126,
            "count" : 50,
            "type" : "VEC3"
        },
        {
            "bufferView" : 31,
            "componentType" : 5126,
            "count" : 50,
            "type" : "VEC2"
        },
        {
            "bufferView" : 32,
            "componentType" : 5123,
            "count" : 108,
            "type" : "SCALAR"
        },
        {
            "bufferView" : 33,
            "componentType" : 5126,
            "count" : 50,
            "max" : [
                2,
                4,
                2
            ],
            "min" : [
                -2,
                -1,
                -2
            ],
            "type" : "VEC3"
        },
        {
            "bufferView" : 34,
            "componentType" : 5126,
            "count" : 50,
            "type" : "VEC3"
        },
        {
            "bufferView" : 35,
            "componentType" : 5126,
            "count" : 50,
            "type" : "VEC2"
        },
        {
            "bufferView" : 36,
            "componentType" : 5126,
            "count" : 351,
            "max" : [
                2,
                4,
                2
            ],
            "min" : [
                -2,
                -2.5,
                -2
            ],
            "type" : "VEC3"
        },
        {
            "bufferView" : 37,
            "componentType" : 5126,
            "count" : 351,
            "type" : "VEC3"
        },
        {
            "bufferView" : 38,
            "componentType" : 5126,
            "count" : 351,
            "type" : "VEC2"
        },
        {
            "bufferView" : 39,
            "componentType" : 5123,
            "count" : 660,
            "type" : "SCALAR"
        },
        {
            "bufferView" : 40,
            "componentType" : 5126,
            "count" : 351,
            "max" : [
                2,
                4,
                2
            ],
            "min" : [
                -2,
                -2.5,
                -2
            ],
            "type" : "VEC3"
        },
        {
            "bufferView" : 41,
            "componentType" : 5126,
            "count" : 351,
            "type" : "VEC3"
        },
        {
            "bufferView" : 42,
            "componentType" : 5126,
            "count" : 351,
            "type" : "VEC2"
        }
    ],
    "bufferViews" : [
        {
            "buffer" : 0,
            "byteLength" : 288,
            "byteOffset" : 0,
            "target" : 34962
        },
        {
            "buffer" : 0,
            "byteLength" : 288,
            "byteOffset" : 288,
            "target" : 34962
        },
        {
            "buffer" : 0,
            "byteLength" : 192,
            "byteOffset" : 576,
            "target" : 34962
        },
        {
            "buffer" : 0,
            "byteLength" : 72,
            "byteOffset" : 768,
            "target" : 34963
        },
        {
            "buffer" : 0,
            "byteLength" : 288,
            "byteOffset" : 840,
            "target" : 34962
        },
        {
            "buffer" : 0,
            "byteLength" : 288,
            "byteOffset" : 1128,
            "target" : 34962
        },
        {
            "buffer" : 0,
            "byteLength" : 192,
            "byteOffset" : 1416,
            "target" : 34962
        },
        {
            "buffer" : 0,
            "byteLength" : 1476,
            "byteOffset" : 1608,
            "target" : 34962
        },
        {
            "buffer" : 0,
            "byteLength" : 1476,
            "byteOffset" : 3084,
            "target" : 34962
        },
        {
            "buffer" : 0,
            "byteLength" : 984,
            "byteOffset" : 4560,
            "target" : 34962
        },
        {
            "buffer" : 0,
            "byteLength" : 696,
            "byteOffset" : 5544,
            "target" : 34963
        },
        {
            "buffer" : 0,
            "byteLength" : 1476,
            "byteOffset" : 6240,
            "target" : 34962
        },
        {
            "buffer" : 0,
            "byteLength" : 1476,
            "byteOffset" : 7716,
            "target" : 34962
        },
        {
            "buffer" : 0,
            "byteLength" : 984,
            "byteOffset" : 9192,
            "target" : 34962
        },
        {
            "buffer" : 0,
            "byteLength" : 1692,
            "byteOffset" : 10176,
            "target" : 34962
        },
        {
            "buffer" : 0,
            "byteLength" : 1692,
            "byteOffset" : 11868,
            "target" : 34962
        },
        {
            "buffer" : 0,
            "byteLength" : 1128,
            "byteOffset" : 13560,
            "target" : 34962
        },
        {
            "buffer" : 0,
            "byteLength" : 768,
            "byteOffset" : 14688,
            "target" : 34963
        },
        {
            "buffer" : 0,
            "byteLength" : 1692,
            "byteOffset" : 15456,
            "target" : 34962
        },
        {
            "buffer" : 0,
            "byteLength" : 1692,
            "byteOffset" : 17148,
            "target" : 34962
        },
        {
            "buffer" : 0,
            "byteLength" : 1128,
            "byteOffset" : 18840,
            "target" : 34962
        },
        {
            "buffer" : 0,
            "byteLength" : 1260,
            "byteOffset" : 19968,
            "target" : 34962
        },
        {
            "buffer" : 0,
            "byteLength" : 1260,
            "byteOffset" : 21228,
            "target" : 34962
        },
        {
            "buffer" : 0,
            "byteLength" : 840,
            "byteOffset" : 22488,
            "target" : 34962
        },
        {
            "buffer" : 0,
            "byteLength" : 624,
            "byteOffset" : 23328,
            "target" : 34963
        },
        {
            "buffer" : 0,
            "byteLength" : 1308,
            "byteOffset" : 23952,
            "target" : 34962
        },
        {
            "buffer" : 0,
            "byteLength" : 1308,
            "byteOffset" : 25260,
            "target" : 34962
        },
        {
            "buffer" : 0,
            "byteLength" : 872,
            "byteOffset" : 26568,
            "target" : 34962
        },
        {
            "buffer" : 0,
            "byteLength" : 624,
            "byteOffset" : 27440,
            "target" : 34963
        },
        {
            "buffer" : 0,
            "byteLength" : 600,
            "byteOffset" : 28064,
            "target" : 34962
        },
        {
            "buffer" : 0,
            "byteLength" : 600,
            "byteOffset" : 28664,
            "target" : 34962
        },
        {
            "buffer" : 0,
            "byteLength" : 400,
            "byteOffset" : 29264,
            "target" : 34962
        },
        {
            "buffer" : 0,
            "byteLength" : 216,
            "byteOffset" : 29664,
            "target" : 34963
        },
        {
            "buffer" : 0,
            "byteLength" : 600,
            "byteOffset" : 29880,
            "target" : 34962
        },
        {
            "buffer" : 0,
            "byteLength" : 600,
            "byteOffset" : 30480,
            "target" : 34962
        },
        {
            "buffer" : 0,
            "byteLength" : 400,
            "byteOffset" : 31080,
            "target" : 34962
        },
        {
            "buffer" : 0,
            "byteLength" : 4212,
            "byteOffset" : 31480,
            "target" : 34962
        },
        {
            "buffer" : 0,
            "byteLength" : 4212,
            "byteOffset" : 35692,
            "target" : 34962
        },
        {
            "buffer" : 0,
            "byteLength" : 2808,
            "byteOffset" : 39904,
            "target" : 34962
        },
        {
            "buffer" : 0,
            "byteLength" : 1320,
            "byteOffset" : 42712,
            "target" : 34963
        },
        {
            "buffer" : 0,
            "byteLength" : 4212,
            "byteOffset" : 44032,
            "target" : 34962
        },
        {
            "buffer" : 0,
            "byteLength" : 4212,
            "byteOffset" : 48244,
            "target" : 34962
        },
        {
            "buffer" : 0,
            "byteLength" : 2808,
            "byteOffset" : 52456,
            "target" : 34962
        }
    ],
    "buffers" : [
        {
            "byteLength" : 55264,
            "uri" : "data:application/octet-stream;base64,"
        }
    ]
}
